<svg width="80" height="80" viewBox="0 0 80 80" fill="none" xmlns="http://www.w3.org/2000/svg">
<circle cx="40" cy="40" r="40" fill="#FEDBDB"/>
<path d="M40 29.3334C45.88 29.3334 50.6666 34.12 50.6666 40C50.6666 45.88 45.88 50.6667 40 50.6667C34.12 50.6667 29.3333 45.88 29.3333 40C29.3333 34.12 34.12 29.3334 40 29.3334ZM40 26.6667C32.6666 26.6667 26.6666 32.6667 26.6666 40C26.6666 47.3334 32.6666 53.3334 40 53.3334C47.3333 53.3334 53.3333 47.3334 53.3333 40C53.3333 32.6667 47.3333 26.6667 40 26.6667ZM35.24 43.2534L33.4266 42.44C33.8 41.6934 34 40.8934 34 40.0667C34 39.1867 33.8 38.3467 33.4266 37.56L35.24 36.7467C35.7466 37.8267 36 38.9334 36 40.0667C36 41.0667 35.7466 42.1334 35.24 43.2534ZM39.3733 45.2534L37.6266 44.3867C38.3333 42.88 38.6666 41.3334 38.6666 39.8134C38.6666 38.3067 38.3333 36.92 37.6266 35.6134L39.3733 34.6134C40.2533 36.16 40.6666 37.8934 40.6666 39.8134C40.6666 41.7734 40.2533 43.5867 39.3733 45.2534ZM43.5733 47.1334L41.7466 46.2C42.8 44.1467 43.3333 42.0934 43.3333 40C43.3333 37.9067 42.8 35.8267 41.7466 33.7467L43.5733 32.8667C44.7333 35.24 45.3333 37.6267 45.3333 40C45.3333 42.4267 44.7333 44.8 43.5733 47.1334Z" fill="#EF1111" fill-opacity="0.65"/>
</svg>
