<svg width="80" height="80" viewBox="0 0 80 80" fill="none" xmlns="http://www.w3.org/2000/svg">
<circle cx="40" cy="40" r="40" fill="#E8F3FF"/>
<path d="M45.6 44.8C45.3878 44.8 45.1843 44.8843 45.0343 45.0343C44.8842 45.1843 44.8 45.3878 44.8 45.6C44.8 45.8122 44.8842 46.0156 45.0343 46.1657C45.1843 46.3157 45.3878 46.4 45.6 46.4H48.8C49.0121 46.4 49.2156 46.3157 49.3656 46.1657C49.5157 46.0156 49.6 45.8122 49.6 45.6C49.6 45.3878 49.5157 45.1843 49.3656 45.0343C49.2156 44.8843 49.0121 44.8 48.8 44.8H45.6ZM27.2 34.8C27.2 33.633 27.6635 32.5139 28.4887 31.6887C29.3138 30.8636 30.433 30.4 31.6 30.4H48.4C49.5669 30.4 50.6861 30.8636 51.5112 31.6887C52.3364 32.5139 52.8 33.633 52.8 34.8V45.2C52.8 46.3669 52.3364 47.4861 51.5112 48.3113C50.6861 49.1364 49.5669 49.6 48.4 49.6H31.6C30.433 49.6 29.3138 49.1364 28.4887 48.3113C27.6635 47.4861 27.2 46.3669 27.2 45.2V34.8ZM31.6 32C30.8573 32 30.1452 32.295 29.6201 32.8201C29.095 33.3452 28.8 34.0574 28.8 34.8V36.8H51.2V34.8C51.2 34.0574 50.905 33.3452 50.3799 32.8201C49.8547 32.295 49.1426 32 48.4 32H31.6ZM51.2 38.4H28.8V45.2C28.8 46.7456 30.0544 48 31.6 48H48.4C49.1426 48 49.8547 47.705 50.3799 47.1799C50.905 46.6548 51.2 45.9426 51.2 45.2V38.4Z" fill="#130982" fill-opacity="0.8"/>
</svg>
