<svg width="80" height="80" viewBox="0 0 80 80" fill="none" xmlns="http://www.w3.org/2000/svg">
<circle cx="40" cy="40" r="40" fill="#F3DBFE"/>
<path d="M34.6666 41.3333V30C34.6666 29.4696 34.8773 28.9609 35.2524 28.5858C35.6275 28.2107 36.1362 28 36.6666 28C37.1971 28 37.7058 28.2107 38.0808 28.5858C38.4559 28.9609 38.6666 29.4696 38.6666 30V40M38.6666 39.3333V36.6667C38.6666 36.1362 38.8773 35.6275 39.2524 35.2525C39.6275 34.8774 40.1362 34.6667 40.6666 34.6667C41.1971 34.6667 41.7058 34.8774 42.0808 35.2525C42.4559 35.6275 42.6666 36.1362 42.6666 36.6667V40M42.6666 38C42.6666 37.4696 42.8773 36.9609 43.2524 36.5858C43.6275 36.2107 44.1362 36 44.6666 36C45.1971 36 45.7058 36.2107 46.0808 36.5858C46.4559 36.9609 46.6666 37.4696 46.6666 38V40" stroke="#7311EF" stroke-opacity="0.7" stroke-width="2" stroke-linecap="round" stroke-linejoin="round"/>
<path d="M46.6667 39.3333C46.6667 38.8029 46.8774 38.2942 47.2525 37.9191C47.6275 37.544 48.1362 37.3333 48.6667 37.3333C49.1971 37.3333 49.7058 37.544 50.0809 37.9191C50.456 38.2942 50.6667 38.8029 50.6667 39.3333V45.3333C50.6667 47.4551 49.8238 49.4899 48.3235 50.9902C46.8232 52.4905 44.7884 53.3333 42.6667 53.3333H40H40.2773C38.9524 53.3336 37.6482 53.0047 36.4818 52.3764C35.3154 51.748 34.3234 50.8398 33.5947 49.7333L33.3333 49.3333C32.9173 48.6947 31.4573 46.1493 28.952 41.696C28.6966 41.242 28.6284 40.7063 28.7618 40.2029C28.8953 39.6994 29.2199 39.2678 29.6667 39C30.1425 38.7145 30.7001 38.5962 31.2509 38.6638C31.8017 38.7314 32.3141 38.9812 32.7067 39.3733L34.6667 41.3333M30.6667 28L29.3333 26.6667M29.3333 33.3333H28M42.6667 28L44 26.6667M44 32H45.3333" stroke="#7311EF" stroke-opacity="0.7" stroke-width="2" stroke-linecap="round" stroke-linejoin="round"/>
</svg>
