<svg width="80" height="80" viewBox="0 0 80 80" fill="none" xmlns="http://www.w3.org/2000/svg">
<circle cx="40" cy="40" r="40" fill="#FEDBF6"/>
<path d="M40 48C47.364 48 53.3333 40 53.3333 40C53.3333 40 47.364 32 40 32C32.636 32 26.6666 40 26.6666 40C26.6666 40 32.636 48 40 48Z" stroke="#EF11BC" stroke-opacity="0.5" stroke-width="4" stroke-linejoin="round"/>
<path d="M40 43.3333C40.884 43.3333 41.7319 42.9821 42.357 42.357C42.9821 41.7319 43.3333 40.8841 43.3333 40C43.3333 39.1159 42.9821 38.2681 42.357 37.643C41.7319 37.0179 40.884 36.6667 40 36.6667C39.1159 36.6667 38.2681 37.0179 37.6429 37.643C37.0178 38.2681 36.6666 39.1159 36.6666 40C36.6666 40.8841 37.0178 41.7319 37.6429 42.357C38.2681 42.9821 39.1159 43.3333 40 43.3333Z" stroke="#EF11BC" stroke-opacity="0.5" stroke-width="4" stroke-linejoin="round"/>
</svg>
